<?xml version="1.0" encoding="UTF-8"?>
<svg id="Layer_1" data-name="Layer 1" xmlns="http://www.w3.org/2000/svg" viewBox="0 0 56.6 56.6">
  <defs>
    <style>
      .cls-1 {
        fill: none;
        stroke: #fff;
        stroke-miterlimit: 10;
        stroke-width: 1.07px;
      }

      .cls-2 {
        fill: #fff;
      }
    </style>
  </defs>
  <rect class="cls-1" x=".54" y=".54" width="55.52" height="55.52" rx="11.05" ry="11.05"/>
  <g>
    <path class="cls-2" d="M28.4,32.6c0,.75-.15,1.41-.45,1.98-.3.57-.71,1.04-1.24,1.43-.53.38-1.13.68-1.83.88-.69.2-1.43.3-2.21.3h-8.58v-17.76h9.5c.62,0,1.18.13,1.68.4.5.27.93.61,1.28,1.04.35.43.62.91.81,1.45.19.54.29,1.09.29,1.64,0,.87-.22,1.68-.65,2.44-.43.76-1.07,1.32-1.9,1.69,1.02.3,1.82.84,2.41,1.61.59.78.89,1.75.89,2.91ZM17.54,22.37v4.48h4.6c.58,0,1.08-.2,1.49-.6.41-.4.61-.95.61-1.65s-.19-1.23-.56-1.63c-.37-.4-.84-.6-1.39-.6h-4.75ZM24.92,31.95c0-.32-.05-.62-.16-.91-.11-.29-.25-.55-.44-.76-.18-.22-.4-.39-.65-.51-.25-.13-.53-.19-.83-.19h-5.3v4.68h5.13c.32,0,.61-.06.89-.18.28-.12.51-.28.71-.49.2-.21.36-.45.48-.74.12-.28.17-.58.17-.9Z"/>
    <path class="cls-2" d="M35.87,37.18c-1.02,0-1.94-.17-2.76-.52-1.63-.69-2.78-1.86-3.45-3.5-.31-.79-.47-1.62-.47-2.5s.15-1.76.46-2.56c.66-1.66,1.81-2.84,3.45-3.55.83-.35,1.76-.53,2.8-.53s1.96.18,2.77.53c2.68,1.17,3.95,3.77,3.83,6.59,0,.19-.03.36-.06.48h-9.81c.05.5.17.94.36,1.33.19.39.44.72.75.99.31.27.65.48,1.04.63.39.15.79.22,1.21.22.65,0,1.26-.16,1.83-.47.57-.31.97-.73,1.18-1.25l2.79.78c-.47.97-1.22,1.77-2.24,2.39-1.03.62-2.25.93-3.67.93ZM39.17,29.52c-.08-.95-.43-1.72-1.05-2.29-.62-.57-1.38-.86-2.27-.86-.44,0-.84.08-1.22.23-.38.15-.71.37-1.01.64-.29.28-.53.61-.71.99-.19.39-.29.82-.33,1.28h6.59Z"/>
    <path class="cls-2" d="M31.6,20.26h8.5v2.11h-8.5v-2.11Z"/>
  </g>
</svg>