<?xml version="1.0" encoding="UTF-8"?>
<svg id="Layer_1" data-name="Layer 1" xmlns="http://www.w3.org/2000/svg" viewBox="0 0 56.6 56.6">
  <defs>
    <style>
      .cls-1 {
        fill: none;
        stroke: #fff;
        stroke-miterlimit: 10;
        stroke-width: 1.07px;
      }

      .cls-2 {
        fill: #fff;
      }
    </style>
  </defs>
  <rect class="cls-1" x=".54" y=".54" width="55.52" height="55.52" rx="11.05" ry="11.05"/>
  <g>
    <path class="cls-2" d="M37.21,17.48c-1.09,0-1.97.88-1.97,1.97s.88,1.97,1.97,1.97,1.97-.88,1.97-1.97-.88-1.97-1.97-1.97Z"/>
    <path class="cls-2" d="M28.44,20.01c-4.57,0-8.29,3.72-8.29,8.29s3.72,8.29,8.29,8.29,8.29-3.72,8.29-8.29-3.72-8.29-8.29-8.29ZM28.44,33.61c-2.93,0-5.31-2.38-5.31-5.31s2.38-5.31,5.31-5.31,5.31,2.38,5.31,5.31-2.38,5.31-5.31,5.31Z"/>
    <path class="cls-2" d="M35.02,11.47h-13.44c-5.57,0-10.11,4.53-10.11,10.11v13.44c0,5.57,4.53,10.11,10.11,10.11h13.44c5.57,0,10.11-4.53,10.11-10.11v-13.44c0-5.57-4.54-10.11-10.11-10.11ZM41.96,35.02c0,3.83-3.11,6.94-6.94,6.94h-13.44c-3.83,0-6.94-3.11-6.94-6.94v-13.44c0-3.83,3.11-6.94,6.94-6.94h13.44c3.83,0,6.94,3.11,6.94,6.94v13.44Z"/>
  </g>
</svg>