<?xml version="1.0" encoding="UTF-8"?>
<svg id="Layer_1" data-name="Layer 1" xmlns="http://www.w3.org/2000/svg" viewBox="0 0 56.6 56.6">
  <defs>
    <style>
      .cls-1 {
        fill: none;
        stroke: #fff;
        stroke-miterlimit: 10;
        stroke-width: 1.07px;
      }

      .cls-2 {
        fill: #fff;
      }
    </style>
  </defs>
  <rect class="cls-1" x=".54" y=".54" width="55.52" height="55.52" rx="11.05" ry="11.05"/>
  <g>
    <path class="cls-2" d="M14.33,21.78h5.99v19.25h-5.99v-19.25ZM17.33,12.22c1.92,0,3.47,1.55,3.47,3.47s-1.55,3.47-3.47,3.47-3.47-1.56-3.47-3.47,1.55-3.47,3.47-3.47"/>
    <path class="cls-2" d="M24.08,21.78h5.74v2.63h.08c.8-1.52,2.75-3.11,5.67-3.11,6.06,0,7.18,3.98,7.18,9.17v10.56h-5.98v-9.36c0-2.23-.04-5.11-3.11-5.11s-3.59,2.43-3.59,4.94v9.52h-5.98v-19.25Z"/>
  </g>
</svg>