<?xml version="1.0" encoding="UTF-8"?>
<svg id="Layer_1" data-name="Layer 1" xmlns="http://www.w3.org/2000/svg" viewBox="0 0 50 50">
  <defs>
    <style>
      .cls-1 {
        fill: #02f;
      }
    </style>
  </defs>
  <path class="cls-1" d="M25,0C11.19,0,0,11.19,0,25s11.19,25,25,25,25-11.19,25-25S38.81,0,25,0ZM41.63,12.5h-5.9c-.78-2.49-1.82-4.78-3.04-6.85,3.57,1.43,6.66,3.81,8.94,6.85ZM27.08,4.85c1.75,2.1,3.18,4.7,4.24,7.65h-4.24v-7.65ZM22.92,4.85v7.65h-4.24c1.06-2.95,2.48-5.55,4.24-7.65ZM17.31,5.65c-1.22,2.07-2.26,4.35-3.04,6.85h-5.9c2.28-3.03,5.36-5.42,8.94-6.85ZM8.37,37.5h5.9c.78,2.49,1.82,4.78,3.04,6.85-3.57-1.42-6.66-3.81-8.94-6.85ZM22.92,45.15c-1.75-2.1-3.18-4.7-4.24-7.65h4.24v7.65ZM27.08,45.15v-7.65h4.24c-1.06,2.95-2.48,5.55-4.24,7.65ZM32.69,44.35c1.22-2.07,2.26-4.35,3.04-6.85h5.9c-2.28,3.03-5.36,5.42-8.94,6.85ZM44.08,33.33H5.92c-.02-.05-.04-.11-.07-.16-.1-.24-.2-.47-.29-.71-.03-.08-.06-.16-.09-.24-.1-.26-.19-.52-.27-.78-.01-.04-.02-.07-.03-.1-.44-1.36-.74-2.78-.89-4.25h.01c-.07-.69-.11-1.38-.11-2.08s.04-1.4.11-2.08h-.01c.15-1.47.45-2.89.89-4.25.01-.03.02-.07.03-.1.09-.26.18-.52.27-.78.03-.08.06-.16.09-.24.09-.24.19-.48.29-.72.02-.05.04-.11.07-.16h38.17c.13.31.26.62.38.93.01.03.02.06.03.09.62,1.65,1.05,3.4,1.23,5.23h-.01c.07.69.11,1.38.11,2.08s-.04,1.4-.11,2.08h.01c-.15,1.47-.45,2.89-.89,4.25-.01.04-.02.07-.04.11-.09.26-.18.52-.27.78-.03.08-.06.16-.09.24-.09.24-.19.47-.29.71-.02.06-.04.11-.07.17Z"/>
  <g>
    <path class="cls-1" d="M16.15,28.74h-1.79l-2.99-4.54v4.54h-1.79v-7.39h1.79l2.99,4.58v-4.58h1.79v7.39Z"/>
    <path class="cls-1" d="M18.65,21.35v7.39h-1.79v-7.39h1.79Z"/>
    <path class="cls-1" d="M25.93,28.74h-1.79l-2.99-4.54v4.54h-1.79v-7.39h1.79l2.99,4.58v-4.58h1.79v7.39Z"/>
    <path class="cls-1" d="M32.35,22.02c.62.49,1.02,1.16,1.2,2.01h-1.89c-.14-.34-.35-.61-.64-.81-.29-.19-.63-.29-1.03-.29-.52,0-.94.19-1.26.58-.32.38-.48.9-.48,1.54s.16,1.15.48,1.53c.32.38.74.57,1.26.57.4,0,.74-.1,1.03-.29.29-.19.5-.46.64-.79h1.89c-.18.84-.58,1.5-1.2,2s-1.4.75-2.34.75c-.72,0-1.35-.16-1.89-.48s-.96-.76-1.26-1.33c-.3-.57-.44-1.22-.44-1.95s.15-1.38.44-1.96c.3-.57.72-1.02,1.26-1.33s1.17-.48,1.89-.48c.94,0,1.72.25,2.34.74Z"/>
    <path class="cls-1" d="M40.42,21.35v7.39h-1.8v-3.08h-2.8v3.08h-1.79v-7.39h1.79v2.86h2.8v-2.86h1.8Z"/>
  </g>
</svg>